<svg width="111" height="9" viewBox="0 0 111 9" fill="none" xmlns="http://www.w3.org/2000/svg">
<path d="M0.354945 7L1.09295 2.8H3.52295L3.44495 3.202H1.52495L1.26695 4.684H3.00695L2.94095 5.08H1.19495L0.930945 6.598H2.85095L2.77895 7H0.354945ZM3.6069 7L4.3449 2.8H4.9329L5.9289 5.728L7.9449 2.8H8.5389L7.8009 7H7.2969L7.8729 3.7L6.0009 6.4H5.6229L4.6929 3.706L4.1109 7H3.6069ZM8.69284 7L9.43084 2.8H10.8108C11.0988 2.8 11.3348 2.848 11.5188 2.944C11.7028 3.04 11.8388 3.168 11.9268 3.328C12.0148 3.488 12.0588 3.662 12.0588 3.85C12.0588 4.146 11.9868 4.398 11.8428 4.606C11.7028 4.814 11.5068 4.974 11.2548 5.086C11.0068 5.194 10.7168 5.248 10.3848 5.248H9.50884L9.19684 7H8.69284ZM9.58084 4.822H10.4448C10.7888 4.822 11.0548 4.746 11.2428 4.594C11.4348 4.438 11.5308 4.202 11.5308 3.886C11.5308 3.694 11.4668 3.536 11.3388 3.412C11.2148 3.284 11.0108 3.22 10.7268 3.22H9.86284L9.58084 4.822ZM13.1689 7L13.8349 3.202H12.5869L12.6589 2.8H15.6649L15.5929 3.202H14.3389L13.6729 7H13.1689ZM16.5444 7L16.8264 5.404L15.9144 2.8H16.4904L17.1624 4.924L18.5904 2.8H19.1544L17.3304 5.404L17.0484 7H16.5444Z" fill="black"/>
<rect x="23" y="2" width="10" height="5" fill="#16A34A"/>
<rect x="34" y="2" width="10" height="5" fill="#FACC15"/>
<rect x="45" y="2" width="10" height="5" fill="#FF5733"/>
<rect x="56" y="2" width="10" height="5" fill="#DC2626"/>
<rect x="67" y="2" width="10" height="5" fill="#7F1D1D"/>
<path d="M83.0662 7.072C82.7102 7.072 82.4062 7.002 82.1542 6.862C81.9062 6.722 81.7162 6.526 81.5842 6.274C81.4522 6.022 81.3862 5.728 81.3862 5.392C81.3862 5.016 81.4462 4.666 81.5662 4.342C81.6902 4.018 81.8622 3.736 82.0822 3.496C82.3022 3.252 82.5582 3.064 82.8502 2.932C83.1462 2.796 83.4662 2.728 83.8102 2.728C84.2902 2.728 84.6622 2.844 84.9262 3.076C85.1902 3.304 85.3282 3.624 85.3402 4.036H84.7702C84.7622 3.768 84.6722 3.558 84.5002 3.406C84.3282 3.25 84.0742 3.172 83.7382 3.172C83.4782 3.172 83.2362 3.228 83.0122 3.34C82.7922 3.448 82.6002 3.602 82.4362 3.802C82.2722 3.998 82.1442 4.228 82.0522 4.492C81.9602 4.756 81.9142 5.042 81.9142 5.35C81.9142 5.754 82.0222 6.068 82.2382 6.292C82.4542 6.516 82.7542 6.628 83.1382 6.628C83.4742 6.628 83.7522 6.552 83.9722 6.4C84.1962 6.248 84.3602 6.042 84.4642 5.782H85.0342C84.8782 6.19 84.6302 6.508 84.2902 6.736C83.9502 6.96 83.5422 7.072 83.0662 7.072ZM85.5483 7L86.2863 2.8H87.6363C87.9243 2.8 88.1583 2.85 88.3383 2.95C88.5183 3.046 88.6503 3.174 88.7343 3.334C88.8183 3.494 88.8603 3.668 88.8603 3.856C88.8603 4.2 88.7603 4.488 88.5603 4.72C88.3643 4.952 88.1003 5.11 87.7683 5.194L88.3623 7H87.8163L87.2703 5.266C87.2423 5.266 87.2143 5.266 87.1863 5.266H86.3583L86.0523 7H85.5483ZM86.4303 4.87H87.2463C87.5783 4.87 87.8443 4.788 88.0443 4.624C88.2443 4.456 88.3443 4.216 88.3443 3.904C88.3443 3.716 88.2803 3.556 88.1523 3.424C88.0243 3.292 87.8163 3.226 87.5283 3.226H86.7183L86.4303 4.87ZM91.0428 7.072C90.6948 7.072 90.3888 6.996 90.1248 6.844C89.8608 6.688 89.6548 6.476 89.5068 6.208C89.3628 5.936 89.2908 5.628 89.2908 5.284C89.2908 4.928 89.3548 4.596 89.4828 4.288C89.6148 3.98 89.7948 3.71 90.0228 3.478C90.2548 3.242 90.5228 3.058 90.8268 2.926C91.1308 2.794 91.4528 2.728 91.7928 2.728C92.1408 2.728 92.4448 2.804 92.7048 2.956C92.9688 3.108 93.1748 3.318 93.3228 3.586C93.4708 3.854 93.5448 4.162 93.5448 4.51C93.5448 4.866 93.4788 5.2 93.3468 5.512C93.2188 5.82 93.0388 6.092 92.8068 6.328C92.5748 6.56 92.3068 6.742 92.0028 6.874C91.7028 7.006 91.3828 7.072 91.0428 7.072ZM91.1148 6.628C91.3748 6.628 91.6208 6.574 91.8528 6.466C92.0848 6.358 92.2868 6.21 92.4588 6.022C92.6348 5.83 92.7728 5.608 92.8728 5.356C92.9728 5.1 93.0228 4.826 93.0228 4.534C93.0228 4.254 92.9668 4.014 92.8548 3.814C92.7468 3.61 92.5948 3.454 92.3988 3.346C92.2028 3.234 91.9768 3.178 91.7208 3.178C91.4568 3.178 91.2088 3.232 90.9768 3.34C90.7488 3.444 90.5468 3.592 90.3708 3.784C90.1948 3.972 90.0568 4.192 89.9568 4.444C89.8608 4.692 89.8128 4.962 89.8128 5.254C89.8128 5.534 89.8668 5.778 89.9748 5.986C90.0868 6.19 90.2408 6.348 90.4368 6.46C90.6328 6.572 90.8588 6.628 91.1148 6.628ZM94.5031 7.006L94.0951 2.8H94.6411L94.9111 6.376L96.5731 2.8H97.1371L97.4971 6.382L99.0451 2.8H99.5911L97.6711 7H97.0951L96.7051 3.544L95.0731 7L94.5031 7.006ZM99.4878 7L100.226 2.8H101.516C102.148 2.8 102.612 2.948 102.908 3.244C103.208 3.536 103.358 3.954 103.358 4.498C103.358 4.99 103.252 5.424 103.04 5.8C102.828 6.176 102.528 6.47 102.14 6.682C101.756 6.894 101.302 7 100.778 7H99.4878ZM100.064 6.58H100.844C101.26 6.58 101.616 6.496 101.912 6.328C102.212 6.16 102.44 5.924 102.596 5.62C102.756 5.312 102.836 4.95 102.836 4.534C102.836 4.106 102.726 3.78 102.506 3.556C102.29 3.332 101.932 3.22 101.432 3.22H100.658L100.064 6.58ZM103.695 7L104.433 2.8H106.863L106.785 3.202H104.865L104.607 4.684H106.347L106.281 5.08H104.535L104.271 6.598H106.191L106.119 7H103.695ZM106.947 7L107.685 2.8H108.975C109.607 2.8 110.071 2.948 110.367 3.244C110.667 3.536 110.817 3.954 110.817 4.498C110.817 4.99 110.711 5.424 110.499 5.8C110.287 6.176 109.987 6.47 109.599 6.682C109.215 6.894 108.761 7 108.237 7H106.947ZM107.523 6.58H108.303C108.719 6.58 109.075 6.496 109.371 6.328C109.671 6.16 109.899 5.924 110.055 5.62C110.215 5.312 110.295 4.95 110.295 4.534C110.295 4.106 110.185 3.78 109.965 3.556C109.749 3.332 109.391 3.22 108.891 3.22H108.117L107.523 6.58Z" fill="black"/>
</svg>
